<?xml version="1.0" encoding="UTF-8" standalone="no"?>
<svg
   xmlns:dc="http://purl.org/dc/elements/1.1/"
   xmlns:cc="http://creativecommons.org/ns#"
   xmlns:rdf="http://www.w3.org/1999/02/22-rdf-syntax-ns#"
   xmlns:svg="http://www.w3.org/2000/svg"
   xmlns="http://www.w3.org/2000/svg"
   viewBox="0 0 2666.6667 2666.6667"
   height="2666.6667"
   width="2666.6667"
   xml:space="preserve"
   id="svg2"
   version="1.1"><metadata
     id="metadata8"><rdf:RDF><cc:Work
         rdf:about=""><dc:format>image/svg+xml</dc:format><dc:type
           rdf:resource="http://purl.org/dc/dcmitype/StillImage" /></cc:Work></rdf:RDF></metadata><defs
     id="defs6"><clipPath
       id="clipPath18"
       clipPathUnits="userSpaceOnUse"><path
         id="path16"
         d="M 0,2000 H 2000 V 0 H 0 Z" /></clipPath></defs><g
     transform="matrix(1.3333333,0,0,-1.3333333,0,2666.6667)"
     id="g10"><g
       id="g12"><g
         clip-path="url(#clipPath18)"
         id="g14"><g
           transform="translate(1275.8535,312.3916)"
           id="g20"><path
             id="path22"
             style="fill:#e2e8ed;fill-opacity:1;fill-rule:nonzero;stroke:none"
             d="m 0,0 h -621.714 c -7.363,0 -13.333,5.971 -13.333,13.333 v 51.163 c 0,7.362 5.97,13.333 13.333,13.333 H 0.002 c 7.363,0 13.333,-5.971 13.333,-13.333 V 13.333 C 13.333,5.971 7.367,0 0,0" /></g><g
           transform="translate(886.458,1458.7544)"
           id="g24"><path
             id="path26"
             style="fill:#6c7782;fill-opacity:1;fill-rule:nonzero;stroke:none"
             d="m 0,0 h -158.05 v 114.886 c 0,35.326 28.636,63.963 63.963,63.963 h 30.124 C -28.636,178.849 0,150.212 0,114.886 Z" /></g><g
           transform="translate(807.2451,1583.6187)"
           id="g28"><path
             id="path30"
             style="fill:#e2e8ed;fill-opacity:1;fill-rule:nonzero;stroke:none"
             d="M 0,0 C 14.986,0 27.135,-12.149 27.135,-27.135 27.135,-42.121 14.986,-54.27 0,-54.27 c -14.986,0 -27.135,12.149 -27.135,27.135 C -27.135,-12.149 -14.986,0 0,0" /></g><g
           transform="translate(1275.8535,1380.9253)"
           id="g32"><path
             id="path34"
             style="fill:#e2e8ed;fill-opacity:1;fill-rule:nonzero;stroke:none"
             d="m 0,0 h -621.714 c -7.363,0 -13.333,5.97 -13.333,13.333 v 51.163 c 0,7.362 5.97,13.333 13.333,13.333 H 0.002 c 7.363,0 13.333,-5.971 13.333,-13.333 V 13.333 C 13.333,5.971 7.367,0 0,0" /></g><g
           transform="translate(1289.1865,1445.4053)"
           id="g36"><path
             id="path38"
             style="fill:#cfdde8;fill-opacity:1;fill-rule:nonzero;stroke:none"
             d="m 0,0 v -51.128 c 0,-7.376 -5.981,-13.357 -13.357,-13.357 H -188.303 V 13.354 H -13.357 C -5.981,13.354 0,7.376 0,0" /></g><g
           transform="translate(1289.1865,376.8721)"
           id="g40"><path
             id="path42"
             style="fill:#cfdde8;fill-opacity:1;fill-rule:nonzero;stroke:none"
             d="m 0,0 v -51.129 c 0,-7.376 -5.981,-13.356 -13.357,-13.356 H -188.303 V 13.354 H -13.357 C -5.981,13.354 0,7.376 0,0" /></g><g
           transform="translate(1238.4766,1380.9253)"
           id="g44"><path
             id="path46"
             style="fill:#e03233;fill-opacity:1;fill-rule:nonzero;stroke:none"
             d="m 0,0 h -238.876 -69.211 -238.873 l -81.914,-117.294 c -1.675,-2.397 -2.571,-5.25 -2.571,-8.176 v -181.59 -376.59 -181.59 c 0,-2.923 0.899,-5.778 2.571,-8.176 l 81.914,-117.289 h 238.873 69.213 238.876 l 81.914,117.294 c 1.675,2.398 2.57,5.251 2.57,8.176 v 181.59 376.588 181.59 c 0,2.925 -0.898,5.779 -2.57,8.175 z" /></g><g
           transform="translate(1322.9688,1255.4531)"
           id="g48"><path
             id="path50"
             style="fill:#c31610;fill-opacity:1;fill-rule:nonzero;stroke:none"
             d="m 0,0 v -739.776 c 0,-2.911 -0.909,-5.771 -2.592,-8.173 l -81.9,-117.268 H -222.09 l 81.928,117.268 c 1.683,2.405 2.565,5.262 2.565,8.173 V 0 c 0,2.938 -0.882,5.797 -2.565,8.173 L -222.09,125.467 H -84.492 L -2.592,8.173 C -0.904,5.794 0,2.938 0,0" /></g><g
           transform="translate(739.6211,1260.8286)"
           id="g52"><path
             id="path54"
             style="fill:#e2e8ed;fill-opacity:1;fill-rule:nonzero;stroke:none"
             d="m 0,0 c 0,0 -66.781,-152.023 -29.383,-419.565 0,0 42.74,-238.483 29.383,-328.259 h 165.609 c 0,0 34.735,97.876 -20.537,328.171 -32.191,134.126 -28.386,294.391 16.991,410.734 1.155,2.962 2.336,5.935 3.544,8.919 z" /></g><g
           transform="translate(1269.1572,332.4258)"
           id="g56"><path
             id="path58"
             style="fill:#000000;fill-opacity:1;fill-rule:nonzero;stroke:none"
             d="M 0,0 H -608.317 V 37.761 H -577.641 -30.679 0 Z m -608.317,1106.294 h 67.568 158.05 H 0 v -37.761 h -30.679 -546.962 -30.676 z m 87.599,134.809 c 0,24.284 19.757,44.041 44.041,44.041 h 29.901 c 24.284,0 44.04,-19.757 44.04,-44.041 v -94.738 h -117.979 v 94.738 z m -37.276,-332.734 c -17.74,-56.318 -49.725,-195.128 -20.767,-402.304 0.035,-0.253 0.075,-0.509 0.123,-0.76 0.395,-2.21 37.121,-208.791 31.017,-304.692 h -94.468 v 707.756 z m 194.067,40.068 h -165.609 -93.548 l 55.888,80.029 h 526.073 l 55.888,-80.029 z m 245.42,-747.824 c -11.066,0 -20.034,-8.97 -20.034,-20.034 0,-11.063 8.968,-20.033 20.034,-20.033 H 16.64 L -41.126,77.831 h -526.072 l -57.766,82.715 h 95.425 165.61 107.854 c 11.066,0 20.034,8.97 20.034,20.033 0,11.064 -8.968,20.034 -20.034,20.034 h -82.74 c 7.474,44.063 14.33,144.072 -26.167,312.812 -11.72,48.83 -18.72,102.689 -20.237,155.748 -0.317,11.058 -9.445,19.727 -20.599,19.453 -11.058,-0.317 -19.77,-9.541 -19.453,-20.599 1.622,-56.58 8.797,-111.74 21.327,-163.954 41.695,-173.72 30.853,-270.24 24.343,-303.46 h -127.922 c 5.426,101.577 -29.231,298.081 -31.604,311.374 -30.151,216.205 9.554,356.154 23.46,396.382 h 122.806 c -10.107,-29.508 -17.997,-61.8 -23.512,-96.271 -1.746,-10.928 5.694,-21.199 16.619,-22.948 10.938,-1.757 21.201,5.69 22.948,16.618 5.986,37.422 14.943,71.885 26.575,102.601 H 33.775 V 200.613 Z m 192.35,727.79 c 0,5.85 -2.523,11.098 -6.52,14.76 l -59.608,85.356 c 17.93,0.555 32.353,15.277 32.353,33.337 v 51.118 c 0,18.413 -14.978,33.391 -33.39,33.391 h -369.343 v 94.738 c 0,46.376 -37.732,84.108 -84.109,84.108 h -29.9 c -46.377,0 -84.109,-37.732 -84.109,-84.108 v -94.738 h -54.211 c -18.412,0 -33.39,-14.978 -33.39,-33.391 v -51.115 c 0,-18.061 14.423,-32.783 32.353,-33.338 l -59.616,-85.364 c -3.995,-3.661 -6.512,-8.906 -6.512,-14.751 0,-0.79 0.058,-1.563 0.146,-2.328 -0.088,-1.008 -0.146,-2.021 -0.146,-3.04 v -739.77 c 0,-0.515 0.034,-1.025 0.058,-1.534 -0.021,-0.383 -0.058,-0.762 -0.058,-1.149 0,-2.974 0.664,-5.784 1.826,-8.322 1.032,-3.045 2.478,-5.952 4.355,-8.64 l 59.947,-85.84 c -17.93,-0.554 -32.354,-15.276 -32.354,-33.337 V -6.669 c 0,-18.413 14.979,-33.391 33.391,-33.391 H 6.678 c 18.412,0 33.39,14.978 33.39,33.391 v 51.115 c 0,18.061 -14.423,32.783 -32.353,33.337 l 59.952,85.851 c 1.872,2.682 3.314,5.586 4.347,8.623 1.162,2.539 1.829,5.352 1.829,8.328 0,0.39 -0.037,0.768 -0.059,1.149 0.022,0.512 0.059,1.019 0.059,1.534 v 739.765 c 0,1.021 -0.059,2.031 -0.147,3.039 0.088,0.766 0.147,1.542 0.147,2.331" /></g><g
           transform="translate(807.2344,1549.3828)"
           id="g60"><path
             id="path62"
             style="fill:#000000;fill-opacity:1;fill-rule:nonzero;stroke:none"
             d="m 0,0 c -3.914,0 -7.101,3.187 -7.101,7.101 0,3.917 3.187,7.101 7.101,7.101 3.915,0 7.101,-3.184 7.101,-7.101 C 7.099,3.187 3.915,0 0,0 m 0,54.27 c -26.009,0 -47.168,-21.16 -47.168,-47.169 0,-26.01 21.159,-47.169 47.168,-47.169 26.01,0 47.169,21.159 47.169,47.169 C 47.169,33.11 26.01,54.27 0,54.27" /></g></g></g></g></svg>